HIERARCHY
ROOT Hips
{
  OFFSET 23.3053 40.0235 39.798
  CHANNELS 6 Xposition Yposition Zposition Zrotation Xrotation Yrotation
  JOINT LeftHip
  {
    OFFSET 3.43 2.84217e-013 -3.55271e-014
    CHANNELS 6 Xposition Yposition Zposition Zrotation Xrotation Yrotation
    JOINT LeftKnee
    {
      OFFSET 0 -18.47 2.4869e-014
      CHANNELS 6 Xposition Yposition Zposition Zrotation Xrotation Yrotation
      JOINT LeftAnkle
      {
        OFFSET -3.55271e-015 -17.95 8.88178e-016
        CHANNELS 6 Xposition Yposition Zposition Zrotation Xrotation Yrotation
        End Site
        {
          OFFSET 0 -3.12 0
        }
      }
    }
  }
  JOINT RightHip
  {
    OFFSET -3.43 0 3.19744e-014
    CHANNELS 6 Xposition Yposition Zposition Zrotation Xrotation Yrotation
    JOINT RightKnee
    {
      OFFSET 0 -18.47 0
      CHANNELS 6 Xposition Yposition Zposition Zrotation Xrotation Yrotation
      JOINT RightAnkle
      {
        OFFSET 1.77636e-014 -17.95 0
        CHANNELS 6 Xposition Yposition Zposition Zrotation Xrotation Yrotation
        End Site
        {
          OFFSET 0 -3.12 0
        }
      }
    }
  }
  JOINT Chest
  {
    OFFSET 2.84217e-014 4.57 4.61853e-014
    CHANNELS 6 Xposition Yposition Zposition Zrotation Xrotation Yrotation
    JOINT Chest2
    {
      OFFSET -4.26326e-014 6.57 -4.44089e-015
      CHANNELS 6 Xposition Yposition Zposition Zrotation Xrotation Yrotation
      JOINT LeftCollar
      {
        OFFSET 1.06 4.19 1.76
        CHANNELS 6 Xposition Yposition Zposition Zrotation Xrotation Yrotation
        JOINT LeftShoulder
        {
          OFFSET 5.81 0 -4.88498e-015
          CHANNELS 6 Xposition Yposition Zposition Zrotation Xrotation Yrotation
          JOINT LeftElbow
          {
            OFFSET 1.42109e-014 -12.08 7.81597e-014
            CHANNELS 6 Xposition Yposition Zposition Zrotation Xrotation Yrotation
            JOINT LeftWrist
            {
              OFFSET -7.10543e-015 -9.82 -3.55271e-015
              CHANNELS 6 Xposition Yposition Zposition Zrotation Xrotation Yrotation
              End Site
              {
                OFFSET 0 -7.37 0
              }
            }
          }
        }
      }
      JOINT RightCollar
      {
        OFFSET -1.06 4.19 1.76
        CHANNELS 6 Xposition Yposition Zposition Zrotation Xrotation Yrotation
        JOINT RightShoulder
        {
          OFFSET -6.06 -7.10543e-015 0
          CHANNELS 6 Xposition Yposition Zposition Zrotation Xrotation Yrotation
          JOINT RightElbow
          {
            OFFSET 2.84217e-014 -11.08 -2.4869e-014
            CHANNELS 6 Xposition Yposition Zposition Zrotation Xrotation Yrotation
            JOINT RightWrist
            {
              OFFSET -1.42109e-014 -9.82 -2.66454e-015
              CHANNELS 6 Xposition Yposition Zposition Zrotation Xrotation Yrotation
              End Site
              {
                OFFSET 0 -7.14001 0
              }
            }
          }
        }
      }
      JOINT Neck
      {
        OFFSET 1.42109e-014 4.05 -6.21725e-015
        CHANNELS 6 Xposition Yposition Zposition Zrotation Xrotation Yrotation
        JOINT Head
        {
          OFFSET -1.06581e-014 5.19 0
          CHANNELS 6 Xposition Yposition Zposition Zrotation Xrotation Yrotation
          End Site
          {
            OFFSET 0 4.14001 0
          }
        }
      }
    }
  }
}
MOTION
Frames:	4
Frame Time:	0.0333333
17.2621 39.9532 -7.31169 0.371424 -0.014933 -0.237341 3.43 -1.95927e-013 2.8144e-014 3.81552 0.510311 3.38023 0 -18.47 -5.31809e-015 0.231369 1.40276 3.35284 -3.55271e-015 -17.95 8.88178e-016 -4.5307 -1.38425 -0.0547824 -3.43 -8.17403e-015 3.53885e-014 -6.23763 0.170085 -7.88072 0 -18.47 0 0.0264813 1.80681 1.12158 3.56368e-015 -17.95 6.08856e-015 5.66674 -1.26232 0.0624792 -8.52651e-014 4.57 2.82448e-014 -0.227177 -1.65049 0.151539 3.55293e-014 6.57 -4.44089e-015 -0.217732 -1.52143 0.120195 1.06 4.19 1.76 10.6427 0.573456 2.9486 5.81 -1.06206e-013 -4.88498e-015 97.3996 -2.73211 17.5405 4.97286e-014 -12.08 1.74364e-014 -11.2187 -6.27298e-014 -23.5181 -7.10543e-015 -9.82 -3.55271e-015 3.14761 -1.39116 0.0382022 -1.06 4.19 1.76 -10.6409 0.545762 -2.79489 -6.06 9.41469e-014 3.94142e-015 -90.6853 -0.401848 -19.2989 2.84217e-014 -11.08 -1.26787e-014 4.12208 1.58601e-013 20.9969 -1.42109e-014 -9.82 -2.66454e-015 -0.0965341 -1.08281 -0.000853036 -3.9092e-014 4.05 -6.21725e-015 0.0663911 15.9501 0.0105376 -1.06581e-014 5.19 0 0.0410345 -2.78593 0.00248188 
17.255 39.9511 -7.3056 0.349427 -0.0598652 -0.232107 3.43 2.77648e-014 2.66991e-014 3.84026 0.456608 3.36776 0 -18.47 -5.44243e-015 0.269042 1.67382 3.30894 -3.55271e-015 -17.95 8.88178e-016 -4.5746 -1.55786 -0.06222 -3.43 -6.83196e-014 3.43924e-014 -6.19383 0.242666 -7.85739 0 -18.47 0 0.0041279 1.77338 1.09424 3.58025e-015 -17.95 1.01882e-014 5.60868 -1.25872 0.061662 3.10862e-014 4.57 2.69244e-014 -0.210665 -1.60207 0.15386 3.55123e-014 6.57 -4.44089e-015 -0.20295 -1.47735 0.123958 1.06 4.19 1.76 10.6325 0.583019 3.04874 5.81 -3.69314e-014 -4.88498e-015 97.3422 -2.86037 17.6027 5.00449e-014 -12.08 1.59298e-014 -11.2096 -5.2795e-014 -23.504 -7.10543e-015 -9.82 -3.55271e-015 3.0124 -1.46345 0.0384949 -1.06 4.19 1.76 -10.6584 0.552605 -2.86764 -6.06 -9.93997e-014 3.76522e-015 -90.6819 -0.430023 -19.1492 2.84217e-014 -11.08 -1.43485e-014 4.20447 1.56426e-013 20.8033 -1.42109e-014 -9.82 -2.66454e-015 -0.239654 -0.923443 -0.00195396 -3.91705e-014 4.05 -6.21725e-015 0.0290266 15.8782 0.0490907 -1.06581e-014 5.19 0 0.115253 -2.76889 0.0131858 
17.2511 39.94 -7.30232 0.35078 -0.041196 -0.256452 3.43 5.96282e-014 2.47274e-014 3.85953 0.416482 3.3915 0 -18.47 -5.83487e-015 0.245315 1.74139 3.30997 -3.55271e-015 -17.95 8.88178e-016 -4.57291 -1.60121 -0.0639371 -3.43 -1.61982e-013 3.2701e-014 -6.19992 0.222414 -7.85922 0 -18.47 0 0.0173799 1.77224 1.11925 3.55329e-015 -17.95 1.59576e-014 5.69605 -1.25772 0.0625707 1.27899e-013 4.57 2.46332e-014 -0.211957 -1.54607 0.18513 3.54549e-014 6.57 -4.44089e-015 -0.206535 -1.42637 0.152214 1.06 4.19 1.76 10.7589 0.590785 3.13682 5.81 3.40917e-014 -4.88498e-015 97.1028 -2.94111 17.5538 5.09221e-014 -12.08 1.41105e-014 -11.2278 -3.7811e-014 -23.0825 -7.10543e-015 -9.82 -3.55271e-015 2.92194 -1.4194 0.036201 -1.06 4.19 1.76 -10.7927 0.578898 -3.15189 -6.06 -2.11262e-013 3.66116e-015 -90.4471 -0.660118 -19.3321 2.84217e-014 -11.08 -1.71061e-014 4.13416 1.55957e-013 20.6755 -1.42109e-014 -9.82 -2.66454e-015 -0.275285 -0.994465 -0.00240134 -3.92963e-014 4.05 -6.21725e-015 0.0639754 15.6043 -0.0312134 -1.06581e-014 5.19 0 -0.045249 -2.32506 -0.0164026 
17.2538 39.9354 -7.29932 0.315011 0.0419573 -0.227556 3.43 4.7462e-015 2.2239e-014 3.91037 0.232377 3.41203 0 -18.47 -6.49387e-015 0.230489 2.00409 3.24534 -3.55271e-015 -17.95 8.88178e-016 -4.57437 -1.76536 -0.070515 -3.43 -2.75293e-013 3.03292e-014 -6.17937 0.146591 -7.86186 0 -18.47 0 0.047616 1.7806 1.09479 3.483e-015 -17.95 2.33584e-014 5.68982 -1.26827 0.0630595 1.83636e-013 4.57 2.13839e-014 -0.17494 -1.6136 0.179567 3.53574e-014 6.57 -4.44089e-015 -0.172633 -1.48802 0.149676 1.06 4.19 1.76 10.6932 0.591239 3.13868 5.81 8.58801e-014 -4.88498e-015 97.0248 -3.03566 17.7308 5.23537e-014 -12.08 1.19837e-014 -11.1541 -1.76725e-014 -23.5206 -7.10543e-015 -9.82 -3.55271e-015 2.90128 -1.39091 0.0351974 -1.06 4.19 1.76 -10.8324 0.582258 -3.18836 -6.06 -3.20707e-013 3.62867e-015 -90.3404 -0.71733 -19.4536 2.84217e-014 -11.08 -2.09238e-014 4.08568 1.57108e-013 20.6167 -1.42109e-014 -9.82 -2.66454e-015 -0.269407 -1.15901 -0.00269603 -3.94693e-014 4.05 -6.21725e-015 0.0285446 15.5928 -0.00907145 -1.06581e-014 5.19 0 -0.00601346 -2.2217 -0.0144386 
